<svg xmlns="http://www.w3.org/2000/svg" viewBox="0 0 24 24">
  <path d="M21 5c-1.11-.35-2.33-.5-3.5-.5-1.95 0-4.05.4-5.5 1.5-1.45-1.1-3.55-1.5-5.5-1.5-1.17 0-2.39.15-3.5.5v14c1.11-.35 2.33-.5 3.5-.5 1.95 0 4.05.4 5.5 1.5 1.35-.89 3.8-1.3 5.5-1.5v-1.13c-.47-.15-.8-.6-.8-1.12v-4.75c0-.62.33-1.07.8-1.2v-4.75c0-.62-.33-1.07-.8-1.2v-1.13zm-18 1.5c.55 0 1 .45 1 1s-.45 1-1 1-1-.45-1-1 .45-1 1-1zm16 0c.55 0 1 .45 1 1s-.45 1-1 1-1-.45-1-1 .45-1 1-1zm-16 4c.55 0 1 .45 1 1s-.45 1-1 1-1-.45-1-1 .45-1 1-1zm16 0c.55 0 1 .45 1 1s-.45 1-1 1-1-.45-1-1 .45-1 1-1zm-16 4c.55 0 1 .45 1 1s-.45 1-1 1-1-.45-1-1 .45-1 1-1zm16 0c.55 0 1 .45 1 1s-.45 1-1 1-1-.45-1-1 .45-1 1-1z"/>
</svg>