<svg
  viewBox="0 0 1069 1024"
  xmlns="http://www.w3.org/2000/svg"
  width="208.7890625"
  height="200"
>
  <path d="M584.461302 753.723546v169.822168H298.31879V753.723546h286.142512zM584.461302 48.790896V178.117718H298.31879V14.752667h286.142512v34.038229z" fill="#D3EEE4"/>
  <path d="M796.466891 814.2913l125.867652-34.905328 32.165666 115.997489-125.867653 34.905327zM710.375077 13.922466l32.377827 117.0583-125.82153 34.86843-32.470072-117.0583L710.375077 13.922466zM644.660078 265.777689l125.784632-34.840757L892.834744 672.852772l-125.793856 34.831532z" fill="#C6CA76"/>
  <path d="M298.31879 923.545714v5.903649H128.404377V808.978015h169.914413v114.567699zM128.404377 14.752667h169.914413v121.486037H128.404377zM128.404377 239.921549h169.914413v458.547527H128.404377z" fill="#FF8875"/>
  <path d="M766.967092 707.656631l125.784632-34.86843 29.509024 106.496302-125.784633 34.86843zM616.903701 165.969114l125.793857-34.840756 27.673357 99.919268-125.793857 34.840756zM298.31879 753.723546v55.254469H128.404377V698.469076h169.914413v55.25447zM298.31879 178.117718V239.921549H128.404377V136.238704h169.914413v41.879014zM584.461302 178.117718v575.605828h-285.958023V178.117718z m-82.097626 429.582747v-276.733571H380.50866v276.733571z" fill="#06C7CA"/>
  <path d="M1055.185106 930.279564v79.699268H13.836679v-79.699268h1041.348427z" fill="#FFDB93"/>
  <path d="M1055.185106 1024H13.836679a13.836679 13.836679 0 0 1-13.836679-13.836679v-79.699268a13.836679 13.836679 0 0 1 13.836679-13.836679h1041.348427a13.836679 13.836679 0 0 1 13.836679 13.836679v79.699268a13.836679 13.836679 0 0 1-13.836679 13.836679z" fill="#18252F"/>
  <!-- 其余 path 保持不变，可继续直接使用 -->
</svg>
